<svg xmlns="http://www.w3.org/2000/svg" width="14.08" height="13.936" viewBox="0 0 14.08 13.936">
  <g id="Group_355" data-name="Group 355" transform="translate(-3478.49 -2873.647)">
    <path id="Path_31" data-name="Path 31" d="M3479.029,2878.409s.18-2.2,2.1-1.659,1.007-3.245,3.564-2.548,1.137-3.294,4.414-2.353" transform="translate(0 2.418)" fill="none" stroke="#000" stroke-linecap="round" stroke-width="1"/>
    <path id="Path_32" data-name="Path 32" d="M3479.029,2878.409s.18-2.2,2.1-1.659,1.007-3.245,3.564-2.548,1.137-3.294,4.414-2.353" transform="translate(0.947 4.49)" fill="none" stroke="#000" stroke-linecap="round" stroke-width="1"/>
    <path id="Path_33" data-name="Path 33" d="M3479.029,2878.409s.18-2.2,2.1-1.659,1.007-3.245,3.564-2.548,1.137-3.294,4.414-2.353" transform="translate(1.893 6.563)" fill="none" stroke="#000" stroke-linecap="round" stroke-width="1"/>
    <path id="Path_34" data-name="Path 34" d="M3479.029,2878.409s.18-2.2,2.1-1.659,1.007-3.245,3.564-2.548,1.137-3.294,4.414-2.353" transform="translate(2.84 8.635)" fill="none" stroke="#000" stroke-linecap="round" stroke-width="1"/>
  </g>
</svg>
